<?xml version="1.0" ?><svg width="64px" height="64px" viewBox="0 0 64 64" style="enable-background:new 0 0 64 64;" version="1.1" xml:space="preserve" xmlns="http://www.w3.org/2000/svg" xmlns:xlink="http://www.w3.org/1999/xlink"><g id="_x32_5_attachment"/><g id="_x32_4_office"/><g id="_x32_3_pin"/><g id="_x32_2_business_card"/><g id="_x32_1_form"/><g id="_x32_0_headset"/><g id="_x31_9_video_call"/><g id="_x31_8_letter_box"/><g id="_x31_7_papperplane"/><g id="_x31_6_laptop"/><g id="_x31_5_connection"/><g id="_x31_4_phonebook"/><g id="_x31_3_classic_telephone"/><g id="_x31_2_sending_mail"/><g id="_x31_1_man_talking"/><g id="_x31_0_date"/><g id="_x30_9_review"/><g id="_x30_8_email"/><g id="_x30_7_information"/><g id="_x30_6_phone_talking"/><g id="_x30_5_women_talking"/><g id="_x30_4_calling"><g><g><path d="M37.415,30.3486c0.123,0.0493,0.249,0.0728,0.374,0.0728c0.3955-0.0005,0.7705-0.2368,0.9277-0.6265     c0.7988-1.9834,0.2021-4.1978-1.5205-5.6406c-1.6396-1.3745-3.7979-1.5752-5.4932-0.5142     c-0.4688,0.293-0.6104,0.9102-0.3174,1.3784c0.292,0.4683,0.9092,0.6089,1.3779,0.3169     c1.1523-0.7192,2.3809-0.2915,3.1484,0.3521c0.7949,0.6655,1.5195,1.9443,0.9492,3.3594     C36.6553,29.5596,36.9033,30.1421,37.415,30.3486z"/><path d="M31.9238,21.0122c2.7773-1.1084,5.6387-0.6743,7.6602,1.1616c2.0264,1.8418,2.79,4.6807,1.9912,7.4092     c-0.1553,0.5298,0.1494,1.0854,0.6787,1.2407c0.0938,0.0273,0.1885,0.0405,0.2813,0.0405c0.4336,0,0.832-0.2832,0.96-0.7197     c1.0146-3.4688,0.0313-7.0898-2.5664-9.4507c-2.6006-2.3647-6.2451-2.9375-9.7471-1.5391     c-0.5127,0.2051-0.7627,0.7871-0.5576,1.2998C30.8291,20.9678,31.4121,21.2153,31.9238,21.0122z"/><path d="M24.5332,39.0854c2.7695,2.8066,6.1914,5.0386,9.1543,5.9712c0.9531,0.3013,2.1611,0.5171,3.4297,0.5171     c1.1914,0,2.4365-0.1904,3.5732-0.6802c1.3105-0.5635,2.5186-1.5386,3.2305-2.6089c0.0107-0.0166,1.0996-1.6777,0.7246-2.937     c-0.4043-1.376-2.0332-2.333-3.6406-3.1812c-2.5166-1.4214-4.1309-1.8286-5.9834-0.1025     c-0.0303,0.0283-0.0586,0.0586-0.0859,0.0908c-0.4248,0.0566-1.9082-0.291-3.5498-1.6289     c-0.4072-0.3315-0.8125-0.6982-1.2041-1.0894c-0.3828-0.3833-0.75-0.7886-1.0898-1.2031     c-1.333-1.6392-1.6865-3.1138-1.627-3.5459c0.0342-0.0278,0.0654-0.0576,0.0947-0.0894c1.7207-1.8516,1.3135-3.4683-0.0938-5.96     c-0.8604-1.6299-1.8145-3.2554-3.1934-3.6665c-1.2715-0.3706-2.9238,0.7183-2.9395,0.729     c-1.0713,0.7124-2.0459,1.9189-2.6084,3.228c-1.0049,2.3433-0.7432,5.1538-0.1631,7.0034     C19.4951,32.8945,21.7266,36.3159,24.5332,39.0854z M20.5625,23.7178c0.4024-0.9375,1.1397-1.8608,1.8789-2.3525     c0.3887-0.2593,1.0195-0.4771,1.2363-0.4771c0.0107,0,0.0205,0.0005,0.0283,0.002c0.6836,0.2036,1.6328,2.0039,2.0039,2.7065     c1.3223,2.3398,1.1396,2.8125,0.4609,3.5576c-0.3398,0.2539-0.5723,0.6455-0.6621,1.1221     c-0.249,1.3218,0.5674,3.4189,2.0342,5.2212c0.3828,0.4683,0.7949,0.9233,1.2246,1.3535     c0.4395,0.439,0.8955,0.8511,1.3545,1.2251c1.7949,1.4639,3.8936,2.2788,5.2158,2.0366c0.5869-0.1089,0.9307-0.395,1.1299-0.6616     c0.7764-0.71,1.2354-0.8525,3.5781,0.4702c0.6787,0.3584,2.4805,1.3096,2.6777,1.9736c0.0283,0.2036-0.1982,0.8755-0.4678,1.2822     c-0.4912,0.7373-1.416,1.4746-2.3564,1.8794c-1.8447,0.7939-4.1738,0.5469-5.6104,0.0923     c-2.6689-0.8394-5.7852-2.8853-8.3369-5.4727c-0.0029-0.0034-0.0068-0.0063-0.0098-0.0098     c-2.5869-2.5518-4.6328-5.6675-5.4727-8.334C20.0186,27.894,19.7715,25.5605,20.5625,23.7178z"/><path d="M47.7549,1H16.2451c-1.9424,0-3.5234,1.5806-3.5234,3.5234v54.9531c0,1.9429,1.5811,3.5234,3.5234,3.5234h31.5098     c1.9424,0,3.5234-1.5806,3.5234-3.5234V4.5234C51.2783,2.5806,49.6973,1,47.7549,1z M39.2705,3v1.1294     c0,0.623-0.5068,1.1299-1.1289,1.1299H25.8584c-0.6221,0-1.1289-0.5068-1.1289-1.1299V3H39.2705z M16.2451,3h6.4844v1.1294     c0,1.7256,1.4033,3.1299,3.1289,3.1299h12.2832c1.7256,0,3.1289-1.4043,3.1289-3.1299V3h6.4844     c0.8398,0,1.5234,0.6836,1.5234,1.5234v51.1733H14.7217V4.5234C14.7217,3.6836,15.4053,3,16.2451,3z M47.7549,61H16.2451     c-0.8398,0-1.5234-0.6836-1.5234-1.5234v-1.7798h34.5566v1.7798C49.2783,60.3164,48.5947,61,47.7549,61z"/></g></g></g><g id="_x30_3_women"/><g id="_x30_2_writing"/><g id="_x30_1_chatting"/></svg>