<?xml version="1.0" ?><svg width="64px" height="64px" viewBox="0 0 64 64" style="enable-background:new 0 0 64 64;" version="1.1" xml:space="preserve" xmlns="http://www.w3.org/2000/svg" xmlns:xlink="http://www.w3.org/1999/xlink"><g id="_x32_5_attachment"/><g id="_x32_4_office"/><g id="_x32_3_pin"/><g id="_x32_2_business_card"/><g id="_x32_1_form"/><g id="_x32_0_headset"/><g id="_x31_9_video_call"/><g id="_x31_8_letter_box"/><g id="_x31_7_papperplane"/><g id="_x31_6_laptop"/><g id="_x31_5_connection"/><g id="_x31_4_phonebook"/><g id="_x31_3_classic_telephone"/><g id="_x31_2_sending_mail"/><g id="_x31_1_man_talking"><g><g><g><path d="M61.4104,20.8827c-1.1951-2.2779-3.2048-3.954-5.659-4.7193c-2.4542-0.7658-5.0602-0.5299-7.3361,0.6662      c-4.6978,2.4664-6.5142,8.2953-4.0507,12.9907c0.1324,0.2549,0.2769,0.5045,0.4332,0.7463l-1.2293,2.1079      c-0.1885,0.3233-0.1807,0.7248,0.0195,1.0403s0.5558,0.4879,0.9333,0.4601l3.8182-0.3399      c1.4261,0.7638,2.9855,1.1472,4.5459,1.1472c1.5306,0,3.0622-0.3687,4.4712-1.1082c2.2759-1.1931,3.9511-3.2019,4.7169-5.6561      C62.839,25.7637,62.6036,23.1591,61.4104,20.8827z M60.1636,27.6221c-0.6061,1.9443-1.9331,3.535-3.7362,4.4805      c-2.3301,1.2229-5.0856,1.1648-7.3689-0.1573c-0.1529-0.0884-0.3258-0.1343-0.5011-0.1343      c-0.0293,0-0.0591,0.0015-0.0889,0.0039l-2.1973,0.1958l0.5758-0.9875c0.2032-0.3482,0.1773-0.7844-0.0654-1.1062      c-0.2408-0.3194-0.4566-0.6623-0.6437-1.0222c-1.9531-3.7225-0.5143-8.3403,3.2073-10.2943      c1.8036-0.9455,3.8671-1.134,5.8104-0.5275c1.9443,0.6066,3.5364,1.934,4.4829,3.7386      C60.5836,23.6143,60.7702,25.6783,60.1636,27.6221z"/><path d="M48.1799,24.3528h-0.0342c-0.5524,0-0.9831,0.4479-0.9831,1.0002c0,0.5524,0.4649,1.0002,1.0173,1.0002      s1.0002-0.4479,1.0002-1.0002C49.1801,24.8006,48.7323,24.3528,48.1799,24.3528z"/><path d="M52.9271,24.3528H52.89c-0.5524,0-0.9817,0.4479-0.9817,1.0002c0,0.5524,0.4664,1.0002,1.0188,1.0002      c0.5524,0,1.0002-0.4479,1.0002-1.0002C53.9273,24.8006,53.4795,24.3528,52.9271,24.3528z"/><path d="M57.6713,24.3528h-0.0342c-0.5524,0-0.9831,0.4479-0.9831,1.0002c0,0.5524,0.4649,1.0002,1.0173,1.0002      s1.0002-0.4479,1.0002-1.0002C58.6715,24.8006,58.2237,24.3528,57.6713,24.3528z"/><path d="M24.9769,51.1552c0.5524,0,1.0002-0.4479,1.0002-1.0002c0-0.5524-0.4479-1.0002-1.0002-1.0002h-0.044      c-0.5524,0-0.9782,0.4479-0.9782,1.0002C23.9547,50.7073,24.4246,51.1552,24.9769,51.1552z"/><path d="M25.038,54.9021h-0.0405c-0.5524,0-0.9797,0.4479-0.9797,1.0002c0,0.5524,0.4679,1.0002,1.0203,1.0002      s1.0002-0.4479,1.0002-1.0002C26.0382,55.35,25.5904,54.9021,25.038,54.9021z"/><path d="M38.336,36.1814c-0.1394-0.3269-0.3235-0.6399-0.5778-0.9156l-1.3753-1.4945      c-0.5807-0.6286-1.3734-0.9934-2.2324-1.0266c-0.2273-0.0064-0.4512,0.0132-0.6707,0.0512l-0.8425-1.5794      c2.3893-1.9973,4.2101-4.767,5.1725-7.4562l1.84-0.6071c1.2962-0.4303,2.4332-2.0688,2.4332-3.5067v-1.5404      c0-1.5155-1.2327-2.7482-2.7482-2.7482h-0.7443v-1.3973c0-0.0031-0.0017-0.0057-0.0017-0.0089      c0.194-4.5469-1.8011-8.3553-5.629-10.727c-4.4961-2.7863-10.8091-2.9655-15.3506-0.4352      c-4.0077,2.2315-6.2148,6.1987-6.2148,11.171v1.3973h-0.7477c-1.5135,0-2.7448,1.2327-2.7448,2.7482v1.5404      c0,1.4388,1.1355,3.0774,2.4312,3.5071l1.8441,0.6085c0.8381,2.329,2.299,4.7293,4.1367,6.6661      c0.233,0.2458,0.4842,0.4742,0.7403,0.6975l-0.717,1.6505c-0.1785-0.0228-0.359-0.0382-0.543-0.0311      c-0.8566,0.0347-1.6469,0.4-2.2236,1.0266l-1.3773,1.493c-0.2517,0.2727-0.4397,0.5858-0.5814,0.9176      C1.4958,40.146,1.4882,47.8968,1.4882,53.0526v8.9542c0,0.5524,0.4479,1.0002,1.0002,1.0002h44.974      c0.5524,0,1.0002-0.4479,1.0002-1.0002v-8.9542C48.4627,47.8964,48.4551,40.1446,38.336,36.1814z M38.5904,19.7761v-2.4175      h0.7443c0.4122,0,0.7477,0.3355,0.7477,0.7477v1.5404c0,0.5631-0.5861,1.4495-1.0613,1.6073l-0.5956,0.1965      C38.5239,20.8735,38.5904,20.3083,38.5904,19.7761z M10.9616,21.2544c-0.4752-0.1578-1.0593-1.0442-1.0593-1.6078v-1.5404      c0-0.4122,0.3341-0.7477,0.7443-0.7477h0.7477v2.397c0,0.5403,0.0719,1.1141,0.1745,1.6992L10.9616,21.2544z M33.2171,35.0578      c0.2315-0.2154,0.5314-0.3243,0.8561-0.314c0.3243,0.0127,0.6227,0.1494,0.8391,0.3839l1.3738,1.493      c0.0005,0.0005,0.001,0.001,0.0015,0.0015c0.2164,0.2339,0.3282,0.5402,0.315,0.862s-0.1494,0.6188-0.3839,0.8351      l-5.9408,5.4783c-0.4864,0.4479-1.2483,0.4156-1.6986-0.0713l-2.189-2.376L33.2171,35.0578z M24.9769,39.9323l-6.832-6.2974      l0.5723-1.3175c1.9197,1.1392,4.211,1.7764,6.6235,1.7764c2.0528,0,3.9609-0.65,5.6592-1.6957l0.7089,1.3289L24.9769,39.9323z       M18.5819,4.5378c3.9369-2.1934,9.4152-2.0337,13.3243,0.3878c2.9076,1.8014,4.5298,4.6086,4.6708,7.9684      c-5.9734-0.3632-10.8281-1.8395-16.0137-4.8867c-0.4215-0.2461-0.9587-0.1543-1.2732,0.2198l-0.4264,0.5094      c-1.9527,2.3392-2.7112,3.2463-5.4074,3.9541C13.8613,8.1313,16.41,5.7473,18.5819,4.5378z M13.3947,19.7555v-4.9909      c3.725-0.8825,4.8111-2.1196,6.8902-4.6089c5.2453,2.9577,10.2152,4.4087,16.3049,4.7589v4.8614      c0,4.8639-5.0397,12.3172-11.2491,12.3172c-2.9821,0-5.7435-1.1086-7.5754-3.0417      C15.192,26.3395,13.3947,22.5164,13.3947,19.7555z M13.6629,36.6221l0.0005-0.0005l1.3782-1.494      c0.2154-0.2344,0.5118-0.3707,0.8342-0.3839c0.0166-0.0005,0.0337-0.001,0.0508-0.001c0.3033,0,0.59,0.1114,0.8127,0.317      l6.8243,6.29l-2.1934,2.3775c-0.2149,0.2339-0.5113,0.3707-0.8342,0.3839c-0.3282,0.0088-0.6295-0.0982-0.863-0.3131      l-5.9403-5.4783c-0.2349-0.2168-0.3717-0.5138-0.3849-0.8361C13.3347,37.1623,13.4465,36.8561,13.6629,36.6221z       M46.4622,61.0065H41.447v-6.267c0-0.5524-0.4479-1.0002-1.0002-1.0002s-1.0002,0.4479-1.0002,1.0002v6.267H9.9022v-6.267      c0-0.5524-0.4479-1.0002-1.0002-1.0002c-0.5524,0-1.0002,0.4479-1.0002,1.0002v6.267H3.4887v-7.9539      c0-4.9834,0.019-11.1212,8.0193-14.6528c0.1656,0.5259,0.4527,1.0068,0.8684,1.3905l5.9413,5.4793      c0.5944,0.5465,1.3582,0.843,2.1645,0.843c0.0454,0,0.0913-0.001,0.1368-0.0029c0.8571-0.0352,1.6469-0.4005,2.2227-1.0271      l2.1348-2.3142l2.1323,2.3142c0.631,0.6837,1.4935,1.03,2.358,1.03c0.7756,0,1.5526-0.2789,2.1665-0.8435l5.9423-5.4798      c0.4239-0.3915,0.7042-0.8754,0.8663-1.3898c8.0014,3.5315,8.0204,9.6695,8.0204,14.653V61.0065z"/></g><path d="M25.0497,27.6294c0.0484,0,0.0972-0.001,0.146-0.0029c0.8972-0.0366,1.7172-0.3971,2.249-0.989     c0.3692-0.4107,0.3355-1.0432-0.0752-1.4124c-0.4102-0.3697-1.0437-0.3345-1.4124,0.0752     c-0.1685,0.1875-0.4913,0.3131-0.8425,0.3272c-0.4181,0.0176-0.8127-0.1236-1.0896-0.3853     c-0.4019-0.379-1.0344-0.3624-1.4139,0.0396c-0.3795,0.4015-0.3619,1.0344,0.0396,1.4139     C23.2827,27.2934,24.1501,27.6294,25.0497,27.6294z"/><path d="M29.2899,20.1829c0.2769-0.2623,0.6803-0.3985,1.0886-0.3858c0.3512,0.0147,0.674,0.1397,0.843,0.3277     c0.1973,0.2198,0.4703,0.3316,0.7443,0.3316c0.2378,0,0.4772-0.0845,0.6681-0.2564c0.4107-0.3692,0.4444-1.0017,0.0752-1.4124     c-0.5323-0.5924-1.3524-0.9529-2.2495-0.989c-0.9538-0.042-1.8788,0.3004-2.545,0.9309c-0.401,0.38-0.4186,1.0129-0.0391,1.4144     C28.256,20.5448,28.8885,20.5619,29.2899,20.1829z"/><path d="M16.9439,18.7294c-0.401,0.38-0.4186,1.0129-0.0391,1.4144c0.379,0.401,1.0134,0.4181,1.4144,0.0391     c0.2764-0.2623,0.6837-0.3985,1.0886-0.3858c0.3512,0.0147,0.674,0.1397,0.843,0.3277c0.1973,0.2198,0.4703,0.3316,0.7443,0.3316     c0.2378,0,0.4772-0.0845,0.6681-0.2564c0.4107-0.3692,0.4444-1.0017,0.0752-1.4124c-0.5323-0.5924-1.3524-0.9529-2.2495-0.989     C18.5321,17.7566,17.6095,18.0989,16.9439,18.7294z"/></g></g></g><g id="_x31_0_date"/><g id="_x30_9_review"/><g id="_x30_8_email"/><g id="_x30_7_information"/><g id="_x30_6_phone_talking"/><g id="_x30_5_women_talking"/><g id="_x30_4_calling"/><g id="_x30_3_women"/><g id="_x30_2_writing"/><g id="_x30_1_chatting"/></svg>